<svg xmlns="http://www.w3.org/2000/svg" clip-rule="evenodd" baseProfile="basic" viewBox="3 5 43 40"><path fill-rule="evenodd" d="M2.998,15.998v2.001h2.001v-2.001 H2.998z" clip-rule="evenodd"/><path fill-rule="evenodd" d="M41.998,23.997v2.001h2.001v-2.001 H41.998z" clip-rule="evenodd"/><path fill-rule="evenodd" d="M43.998,34.997v2.001h2.001v-2.001 H43.998z" clip-rule="evenodd"/><path fill-rule="evenodd" d="M21.994,42.681 c-1.273-0.923-2.517-2.052-3.607-3.017l-0.859-0.747l-1.16-0.261C9.066,36.506,2.999,27.209,2.999,17.998c0-4.328,2.66-10,8-10 c3.22,0,7.844,3.813,10.047,6.42l0.443,0.58h10.511c5.387,0,12,5.041,12,11c0,2.251-1,4.831-1,6c0,1.284,3,2.685,3,5 c0,2.58-3.412,4.54-6.628,5.769c-3.508,1.343-7.879,2.231-11.372,2.231C25.741,44.998,23.723,43.935,21.994,42.681z" clip-rule="evenodd"/><path fill="#fff" fill-rule="evenodd" d="M38.999,19.998l-11-6 c1.631-3.701,4.229-8,8-8c1.891,0,3,2.171,3,5V19.998z" clip-rule="evenodd"/><path fill-rule="evenodd" d="M37.999,19.998v-9 c0-1.301-0.259-2.364-0.659-3.063c-0.385-0.672-0.849-0.937-1.341-0.937c-3.029,0-5.396,3.569-7.085,7.404 c-0.223,0.505-0.813,0.735-1.319,0.512c-0.505-0.223-0.735-0.813-0.512-1.319c0.831-1.884,1.935-3.989,3.355-5.637 c1.417-1.644,3.261-2.96,5.561-2.96c1.392,0,2.436,0.827,3.076,1.943c0.627,1.093,0.924,2.531,0.924,4.057v9c0,0.552-0.449,1-1,1 C38.447,20.998,37.999,20.55,37.999,19.998z" clip-rule="evenodd"/><path fill="#fff" fill-rule="evenodd" d="M27.999,41.998 c-3.887,0-7.227-3.672-10-6c-7.301-1.141-14-10.496-14-20c0-4.103,2.527-9,7-9c3.139,0,8.405,4.597,10,7h11c4.955,0,11,4.725,11,10 c0,2.025-1,4.687-1,6c0,1.943,3,3.132,3,5C44.999,38.558,34.709,41.998,27.999,41.998z" clip-rule="evenodd"/><path fill-rule="evenodd" d="M21.994,40.681 c-1.273-0.923-2.517-2.052-3.607-3.017l-0.859-0.747l-1.16-0.261C9.066,34.506,2.999,25.209,2.999,15.998c0-4.328,2.66-10,8-10 c3.22,0,7.844,3.813,10.047,6.42l0.443,0.58h10.511c5.387,0,12,5.041,12,11c0,2.251-1,4.831-1,6c0,1.284,3,2.685,3,5 c0,2.58-3.412,4.54-6.628,5.769c-3.508,1.343-7.879,2.231-11.372,2.231C25.741,42.998,23.723,41.935,21.994,40.681z M38.658,38.899 c3.599-1.376,5.341-2.925,5.341-3.901c0-1.189-3-2.629-3-5c0-1.563,1-4.077,1-6c0-4.605-5.456-9-10-9h-11 c-0.336,0-0.648-0.167-0.833-0.447c-1.547-2.329-6.563-6.553-9.167-6.553c-3.647,0-6,4.172-6,8c0,9.185,6.492,17.972,13.153,19.012 c0.18,0.029,0.349,0.105,0.489,0.223c2.989,2.511,5.977,5.765,9.357,5.765C31.214,40.998,35.343,40.167,38.658,38.899z" clip-rule="evenodd"/><path fill-rule="evenodd" d="M24.481,21.854 c-0.472-0.285-0.623-0.9-0.337-1.373c0.749-1.24,1.741-2.127,2.932-2.693c1.18-0.561,2.511-0.789,3.924-0.789c0.551,0,1,0.449,1,1 c0,0.552-0.449,1-1,1c-1.207,0-2.224,0.196-3.064,0.595c-0.828,0.395-1.527,1.008-2.081,1.924 C25.569,21.989,24.954,22.139,24.481,21.854z" clip-rule="evenodd"/><path fill-rule="evenodd" d="M22.529,35.882 c-0.487-0.26-0.672-0.865-0.413-1.353c0.26-0.487,0.865-0.672,1.353-0.413c0.983,0.523,1.899,0.883,3.531,0.883c0.588,0,1-0.372,1-1 c0-1.168-0.368-2.633-0.867-3.5c-0.276-0.479-0.112-1.091,0.367-1.365c0.479-0.276,1.091-0.112,1.365,0.367 c0.699,1.212,1.135,3.029,1.135,4.499c0,1.776-1.351,3-3,3C24.967,36.998,23.731,36.521,22.529,35.882z" clip-rule="evenodd"/><path fill-rule="evenodd" d="M20.186,14.581 c-0.321-0.448-0.219-1.073,0.231-1.395c0.824-0.591,1.471-1.217,1.908-1.901c0.431-0.671,0.675-1.416,0.675-2.287 c0-0.551,0.448-1,1-1c0.551,0,1,0.449,1,1c0,1.277-0.367,2.393-0.991,3.367c-0.617,0.961-1.471,1.761-2.428,2.447 C21.133,15.133,20.507,15.03,20.186,14.581z" clip-rule="evenodd"/><path fill-rule="evenodd" d="M21.005,14.113 c-0.063-0.549,0.332-1.045,0.88-1.108c1.803-0.205,3.195-1.104,4.312-2.604c0.329-0.443,0.957-0.533,1.4-0.204 c0.443,0.329,0.533,0.957,0.204,1.4c-1.399,1.877-3.263,3.119-5.688,3.396C21.563,15.055,21.067,14.661,21.005,14.113z" clip-rule="evenodd"/><path fill-rule="evenodd" d="M17.31,36.725 c-1.333-1.265-2.311-2.864-2.311-4.727c0-1.08,0.296-1.965,0.728-2.724l0.324-0.509l-0.271-0.065 c-2.795-0.831-3.913-3.243-4.716-5.344c-0.3-0.783,0.447-1.567,1.244-1.308c0.693,0.227,1.248,0.444,1.921,0.643 c0.633,0.188,1.22,0.308,1.769,0.308c0.873,0,1.317-0.191,1.552-0.416c0.225-0.217,0.448-0.649,0.448-1.584 c0-0.52-0.284-1.415-0.949-2.545c-0.644-1.097-1.583-2.304-2.729-3.425c-2.321-2.267-5.333-4.029-8.321-4.029c-0.552,0-1-0.448-1-1 c0-0.551,0.448-1,1-1c3.732,0,7.22,2.157,9.719,4.599c2.447,2.391,4.281,5.388,4.281,7.401c0,1.213-0.287,2.281-1.064,3.027 c-0.769,0.739-1.825,0.973-2.936,0.973c-0.413,0-0.819-0.044-1.211-0.115l-0.933-0.228l0.271,0.452 c0.157,0.229,0.328,0.443,0.516,0.636c0.7,0.727,1.695,1.255,3.357,1.255c0.875,0,1.328,1.053,0.724,1.689 c-1.057,1.113-1.724,1.991-1.724,3.311c0,1.12,0.584,2.228,1.688,3.275c0.4,0.38,0.417,1.013,0.037,1.415 C18.345,37.087,17.711,37.105,17.31,36.725z" clip-rule="evenodd"/><path fill-rule="evenodd" d="M29.998,29.498 c0-1.932,0.673-3.5,1.501-3.5c0.828,0,1.501,1.568,1.501,3.5c0,0.537-0.052,1.047-0.145,1.5h-2.713 C30.049,30.545,29.998,30.035,29.998,29.498z" clip-rule="evenodd"/><path fill-rule="evenodd" d="M37.382,30.998l-0.897-4.081 c0.267-0.571,0.623-0.919,1.013-0.919c0.828,0,1.501,1.568,1.501,3.5c0,0.537-0.053,1.047-0.145,1.5H37.382z" clip-rule="evenodd"/><path fill-rule="evenodd" d="M36.963,34.997 c-0.763-0.019-2.165-1.569-1.939-2.492c0.213-0.871,3.308-0.537,3.875,0.375C39.395,33.675,37.939,35.034,36.963,34.997z" clip-rule="evenodd"/><path fill-rule="evenodd" d="M28.999,34.998 c1.027,0.973,2.511,2,4,2c1.121,0,2.209-0.388,3-1l1,1l-4,4h-4l-2-5l1.293-0.332L28.999,34.998z" clip-rule="evenodd"/></svg>